<?xml version="1.0" encoding="utf-8"?>
<!-- Generator: Adobe Illustrator 16.0.0, SVG Export Plug-In . SVG Version: 6.00 Build 0)  -->
<!DOCTYPE svg PUBLIC "-//W3C//DTD SVG 1.1//EN" "http://www.w3.org/Graphics/SVG/1.1/DTD/svg11.dtd">
<svg version="1.1" id="Capa_1" xmlns="http://www.w3.org/2000/svg" xmlns:xlink="http://www.w3.org/1999/xlink" x="0px" y="0px"
	 width="302.11px" height="184.809px" viewBox="0 0 302.11 184.809" enable-background="new 0 0 302.11 184.809"
	 xml:space="preserve">
<g>
	<path fill="#35313A" d="M156.758,52.291c0,2.31-0.358,4.433-1.078,6.371c-0.719,1.939-1.808,3.617-3.267,5.032
		c-1.46,1.416-3.311,2.515-5.554,3.3c-2.245,0.784-4.891,1.176-7.94,1.176c-6.884,0-12.002-1.928-15.356-5.783
		c-3.355-3.855-5.032-9.769-5.032-17.742c0-3.92,0.479-7.339,1.438-10.258c0.958-2.918,2.33-5.336,4.117-7.254
		c1.786-1.916,3.964-3.354,6.534-4.313c2.57-0.957,5.446-1.437,8.626-1.437c6.012,0,10.433,1.492,13.266,4.476
		c2.83,2.984,4.246,7.047,4.246,12.187h-5.945c0-1.307-0.142-2.635-0.425-3.986c-0.283-1.35-0.839-2.581-1.666-3.692
		c-0.828-1.111-1.993-2.014-3.496-2.712c-1.503-0.696-3.496-1.046-5.979-1.046c-2.266,0-4.28,0.327-6.045,0.981
		c-1.764,0.653-3.267,1.688-4.508,3.104c-1.242,1.416-2.189,3.267-2.843,5.554c-0.653,2.287-0.98,5.064-0.98,8.332
		c0,3.833,0.392,6.948,1.176,9.344c0.784,2.396,1.83,4.269,3.137,5.619c1.307,1.351,2.82,2.266,4.541,2.745
		c1.721,0.48,3.518,0.719,5.391,0.719c2.091,0,3.888-0.283,5.391-0.85c1.503-0.566,2.723-1.34,3.659-2.32
		c0.937-0.98,1.623-2.123,2.059-3.43c0.434-1.307,0.653-2.68,0.653-4.117H156.758z"/>
	<rect x="163.752" y="22.232" fill="#35313A" width="5.75" height="45.153"/>
	<path fill="#35313A" d="M178.976,22.232h6.013v6.796h-6.013V22.232z M179.108,34.648h5.75v32.738h-5.75V34.648z"/>
	<path fill="#35313A" d="M194.462,67.386V34.648h5.75l-0.065,6.077c0.565-1.829,1.797-3.408,3.692-4.737
		c1.894-1.329,4.366-1.993,7.416-1.993c2.265,0,4.117,0.261,5.555,0.784s2.656,1.416,3.659,2.679c0.784,1.003,1.35,2.32,1.699,3.953
		c0.348,1.634,0.522,3.715,0.522,6.241v19.734h-5.75V48.501c0-3.79-0.63-6.381-1.888-7.776c-1.216-1.263-3.169-1.895-5.858-1.895
		c-2.126,0-3.808,0.415-5.044,1.242c-1.238,0.828-2.095,1.677-2.571,2.548c-0.521,0.872-0.879,1.907-1.074,3.104
		c-0.196,1.199-0.293,2.516-0.293,3.954v17.708H194.462z"/>
	<path fill="#35313A" d="M232.166,22.232h6.012v6.796h-6.012V22.232z M232.296,34.648h5.75v32.738h-5.75V34.648z"/>
	<polygon fill="#006BA9" points="121.598,134.386 121.598,70.247 137.19,70.247 137.19,121.392 165.222,121.392 165.222,134.386 	
		"/>
	<path fill="#006BA9" d="M166.151,134.386l24.133-64.14h16.336l24.04,64.14H213.21l-4.456-12.996H187.5l-4.27,12.996H166.151z
		 M204.299,108.119c-1.113-3.279-2.027-5.972-2.738-8.076c-0.712-2.103-1.299-3.852-1.764-5.244
		c-0.464-1.393-0.835-2.521-1.113-3.389c-0.278-0.866-0.543-1.701-0.789-2.506c-0.248,0.743-0.511,1.547-0.789,2.414
		c-0.278,0.867-0.649,1.995-1.113,3.387c-0.465,1.393-1.037,3.156-1.718,5.29c-0.682,2.136-1.579,4.845-2.691,8.124H204.299z"/>
	<path fill="#006BA9" d="M235.114,70.248h21.998c3.031,0,5.924,0.093,8.679,0.279c2.752,0.185,5.397,0.619,7.937,1.299
		c7.054,1.856,10.58,6.622,10.58,14.294c0,3.961-0.805,7.1-2.413,9.421c-1.609,2.32-4.177,4.068-7.704,5.244
		c8.785,1.238,13.181,6.313,13.181,15.223c0,4.084-0.882,7.52-2.646,10.303c-1.764,2.785-4.44,4.826-8.028,6.127
		c-0.868,0.309-1.966,0.588-3.296,0.834c-1.331,0.248-2.77,0.451-4.315,0.604c-1.548,0.156-3.172,0.279-4.873,0.371
		c-1.703,0.094-3.388,0.141-5.059,0.141h-24.04V70.248z M261.196,95.773c0.865,0,1.778-0.094,2.739-0.278
		c0.958-0.187,1.746-0.433,2.365-0.743c1.052-0.557,1.732-1.299,2.042-2.228c0.31-0.928,0.465-1.917,0.465-2.97
		c0-2.537-0.867-4.207-2.6-5.012c-0.619-0.309-1.471-0.525-2.552-0.65c-1.084-0.123-2.244-0.185-3.481-0.185h-9.56v12.066H261.196z
		 M261.289,120.927c1.052,0,2.165-0.076,3.342-0.232c1.174-0.154,2.103-0.385,2.784-0.697c1.237-0.494,2.119-1.266,2.646-2.318
		c0.524-1.053,0.789-2.32,0.789-3.807c0-1.424-0.311-2.631-0.929-3.621c-0.619-0.988-1.609-1.699-2.97-2.135
		c-0.682-0.184-1.532-0.307-2.553-0.371c-1.021-0.061-1.935-0.092-2.738-0.092h-11.045v13.273H261.289z"/>
	<rect x="104.786" y="26.411" fill="#006BA9" width="5.82" height="115.534"/>
	<path fill="#1D1D1B" d="M46.354,157.728c-0.021,0.08-0.03,0.162-0.03,0.242v0.23c0,0.672,0.241,1.184,0.724,1.541
		c0.483,0.355,1.162,0.533,2.037,0.533c0.428,0,0.827-0.037,1.198-0.113c0.371-0.078,0.696-0.203,0.977-0.375
		c0.279-0.172,0.498-0.393,0.656-0.664c0.157-0.268,0.236-0.592,0.236-0.969c0-0.172-0.023-0.338-0.069-0.494
		c-0.045-0.16-0.142-0.313-0.29-0.459c-0.147-0.148-0.356-0.287-0.625-0.42c-0.27-0.131-0.633-0.258-1.091-0.381l-1.434-0.398
		c-1.496-0.426-2.243-1.229-2.243-2.41c0-1.066,0.378-1.885,1.134-2.457c0.757-0.568,1.83-0.854,3.221-0.854
		c1.056,0,1.86,0.201,2.413,0.602c0.554,0.404,0.831,0.996,0.831,1.779v0.297c0,0.117-0.011,0.221-0.031,0.314h-1.083
		c0.01-0.072,0.015-0.146,0.015-0.223v-0.189c0-0.225-0.041-0.439-0.122-0.643s-0.213-0.381-0.396-0.533
		c-0.182-0.152-0.423-0.271-0.722-0.357c-0.3-0.088-0.667-0.131-1.103-0.131c-0.406,0-0.791,0.035-1.157,0.105
		c-0.365,0.072-0.685,0.189-0.958,0.352c-0.274,0.164-0.492,0.383-0.654,0.656c-0.163,0.275-0.244,0.615-0.244,1.021
		c0,0.469,0.145,0.83,0.434,1.084s0.789,0.484,1.499,0.688l1.4,0.396c0.852,0.234,1.466,0.537,1.841,0.908s0.563,0.852,0.563,1.441
		c0,0.631-0.116,1.158-0.35,1.588c-0.234,0.426-0.551,0.77-0.952,1.027c-0.401,0.26-0.871,0.443-1.409,0.551
		c-0.538,0.107-1.112,0.16-1.72,0.16c-0.63,0-1.176-0.07-1.638-0.215c-0.462-0.141-0.842-0.338-1.142-0.586
		c-0.299-0.25-0.52-0.539-0.662-0.871c-0.142-0.33-0.214-0.682-0.214-1.059c0-0.113,0.003-0.225,0.008-0.336
		c0.005-0.111,0.023-0.238,0.053-0.381H46.354z"/>
	<path fill="#1D1D1B" d="M62.039,155.988c0,0.334-0.028,0.691-0.084,1.068s-0.143,0.748-0.259,1.113
		c-0.117,0.365-0.27,0.717-0.458,1.053s-0.42,0.635-0.694,0.9c-0.722,0.713-1.678,1.066-2.869,1.066
		c-1.017,0-1.764-0.246-2.242-0.738c-0.479-0.492-0.718-1.182-0.718-2.066c0-0.316,0.028-0.652,0.084-1.008
		c0.056-0.355,0.14-0.709,0.252-1.061c0.112-0.352,0.262-0.691,0.45-1.021c0.188-0.332,0.41-0.629,0.664-0.895
		c0.386-0.406,0.829-0.699,1.327-0.877c0.499-0.178,1.063-0.266,1.694-0.266c0.925,0,1.632,0.223,2.121,0.67
		C61.794,154.376,62.039,155.062,62.039,155.988 M60.956,156.083c0-0.703-0.17-1.205-0.511-1.506
		c-0.341-0.301-0.822-0.451-1.442-0.451c-0.458,0-0.865,0.072-1.221,0.223c-0.356,0.146-0.677,0.389-0.961,0.725
		c-0.163,0.205-0.308,0.438-0.435,0.697s-0.234,0.533-0.32,0.818c-0.087,0.285-0.151,0.572-0.191,0.863
		c-0.041,0.291-0.061,0.564-0.061,0.818c0,0.705,0.173,1.221,0.518,1.553c0.346,0.33,0.855,0.496,1.526,0.496
		c0.387,0,0.743-0.055,1.069-0.168c0.325-0.111,0.62-0.311,0.884-0.596c0.194-0.203,0.361-0.453,0.504-0.75
		c0.142-0.295,0.262-0.604,0.359-0.924c0.096-0.322,0.167-0.641,0.213-0.957S60.956,156.328,60.956,156.083"/>
	<path fill="#1D1D1B" d="M63.305,161.007l1.434-6.76h-0.9l0.168-0.809h0.9l0.168-0.777c0.112-0.52,0.239-0.908,0.381-1.168
		c0.143-0.258,0.316-0.475,0.519-0.648c0.265-0.203,0.549-0.34,0.854-0.41c0.306-0.072,0.646-0.109,1.023-0.109
		c0.142,0,0.318,0.012,0.526,0.031c0.209,0.02,0.369,0.047,0.481,0.078l-0.199,0.838c-0.111-0.021-0.267-0.037-0.465-0.053
		c-0.198-0.016-0.353-0.023-0.465-0.023c-0.234,0-0.45,0.023-0.649,0.068c-0.198,0.047-0.368,0.139-0.511,0.283
		c-0.101,0.111-0.19,0.256-0.267,0.434c-0.076,0.178-0.144,0.416-0.206,0.711l-0.152,0.746h1.907l-0.168,0.809h-1.907l-1.434,6.76
		H63.305z"/>
	<path fill="#1D1D1B" d="M70.934,160.992c-0.152,0.051-0.333,0.092-0.542,0.123c-0.208,0.029-0.46,0.045-0.755,0.045
		c-0.427,0-0.781-0.1-1.06-0.297c-0.28-0.199-0.42-0.543-0.42-1.029c0-0.203,0.018-0.418,0.053-0.643
		c0.036-0.223,0.079-0.467,0.13-0.73l0.916-4.211h-1.114l0.183-0.811h1.098l0.458-2.029h1.007l-0.427,2.029h1.816l-0.168,0.811
		h-1.816l-0.9,4.193c-0.051,0.256-0.089,0.477-0.114,0.664c-0.026,0.189-0.039,0.344-0.039,0.467c0,0.498,0.29,0.746,0.87,0.746
		c0.193,0,0.379-0.012,0.557-0.037c0.178-0.025,0.333-0.063,0.465-0.113L70.934,160.992z"/>
	<path fill="#1D1D1B" d="M73.513,161.007l-0.595-7.568h1.037c0.092,1.201,0.163,2.17,0.214,2.908
		c0.051,0.736,0.094,1.334,0.13,1.793c0.035,0.457,0.063,0.814,0.084,1.074c0.02,0.26,0.035,0.512,0.046,0.756
		c0.111-0.234,0.226-0.479,0.343-0.732c0.116-0.254,0.289-0.609,0.518-1.061c0.229-0.453,0.535-1.053,0.916-1.801
		c0.381-0.748,0.887-1.727,1.518-2.938h1.114c0.112,1.189,0.206,2.162,0.282,2.916c0.077,0.752,0.138,1.365,0.183,1.838
		c0.046,0.473,0.079,0.838,0.1,1.098c0.02,0.26,0.035,0.486,0.045,0.68c0.082-0.203,0.178-0.43,0.29-0.68
		c0.112-0.25,0.28-0.604,0.504-1.066c0.223-0.463,0.523-1.074,0.9-1.832c0.376-0.758,0.859-1.742,1.449-2.953h1.114l-3.815,7.568
		h-1.174c-0.122-1.221-0.222-2.209-0.298-2.969c-0.076-0.758-0.137-1.369-0.183-1.838c-0.046-0.467-0.079-0.828-0.099-1.084
		c-0.02-0.254-0.041-0.488-0.061-0.701c-0.092,0.193-0.198,0.414-0.32,0.664c-0.122,0.248-0.303,0.609-0.542,1.076
		c-0.239,0.467-0.557,1.082-0.954,1.846c-0.396,0.764-0.92,1.766-1.571,3.006H73.513z"/>
	<path fill="#1D1D1B" d="M88.207,161.007l0.244-1.221c-0.254,0.428-0.598,0.768-1.03,1.021s-1.015,0.383-1.747,0.383
		c-0.367,0-0.689-0.053-0.969-0.152c-0.28-0.104-0.511-0.242-0.694-0.42c-0.184-0.178-0.323-0.383-0.42-0.617
		c-0.097-0.236-0.145-0.479-0.145-0.734c0-0.467,0.094-0.875,0.282-1.221c0.189-0.344,0.501-0.629,0.939-0.854
		c0.203-0.102,0.427-0.186,0.671-0.252c0.244-0.064,0.524-0.115,0.839-0.152c0.315-0.035,0.682-0.059,1.099-0.068
		s0.905-0.016,1.464-0.016h0.336l0.122-0.52c0.051-0.201,0.082-0.375,0.092-0.518c0.01-0.143,0.015-0.27,0.015-0.381
		c0-0.367-0.122-0.658-0.366-0.871c-0.244-0.213-0.661-0.32-1.251-0.32c-0.702,0-1.226,0.125-1.572,0.373
		c-0.346,0.25-0.569,0.691-0.671,1.322h-1.007c0.061-0.387,0.165-0.74,0.313-1.053c0.147-0.316,0.356-0.584,0.625-0.803
		c0.27-0.219,0.603-0.387,1-0.504c0.396-0.115,0.874-0.176,1.434-0.176c0.366,0,0.704,0.031,1.014,0.092
		c0.311,0.063,0.575,0.16,0.794,0.297c0.219,0.139,0.392,0.324,0.519,0.559c0.127,0.232,0.19,0.529,0.19,0.885
		c0,0.164-0.012,0.357-0.038,0.58c-0.025,0.223-0.069,0.477-0.13,0.762l-0.961,4.578H88.207z M88.572,157.484
		c-0.458,0-0.847,0.004-1.167,0.016c-0.321,0.008-0.593,0.025-0.817,0.045c-0.224,0.021-0.414,0.045-0.572,0.076
		c-0.158,0.031-0.298,0.066-0.42,0.107c-0.335,0.111-0.602,0.273-0.8,0.484c-0.199,0.209-0.298,0.512-0.298,0.912
		c0,0.469,0.153,0.797,0.458,0.982c0.305,0.184,0.676,0.273,1.114,0.273c0.325,0,0.605-0.033,0.839-0.098
		c0.234-0.066,0.434-0.154,0.602-0.262s0.311-0.223,0.428-0.346c0.116-0.123,0.216-0.234,0.297-0.338
		c0.122-0.162,0.234-0.359,0.336-0.588c0.102-0.232,0.178-0.459,0.229-0.684l0.137-0.582H88.572z"/>
	<path fill="#1D1D1B" d="M91.669,161.007l1.602-7.568h1.038l-0.336,1.588c0.092-0.234,0.211-0.457,0.359-0.672
		c0.147-0.213,0.325-0.404,0.533-0.572c0.209-0.168,0.448-0.303,0.718-0.404c0.269-0.102,0.562-0.152,0.877-0.152
		c0.142,0,0.262,0.006,0.358,0.014c0.097,0.012,0.206,0.037,0.329,0.078l-0.199,0.93c-0.224-0.061-0.473-0.092-0.747-0.092
		c-0.244,0-0.471,0.037-0.679,0.107c-0.209,0.07-0.397,0.16-0.565,0.268s-0.31,0.221-0.427,0.342
		c-0.117,0.123-0.216,0.236-0.298,0.336c-0.183,0.236-0.331,0.531-0.442,0.895c-0.112,0.361-0.204,0.703-0.275,1.029l-0.808,3.875
		H91.669z"/>
	<path fill="#1D1D1B" d="M103.54,158.658c-0.061,0.285-0.168,0.576-0.32,0.877c-0.153,0.301-0.372,0.572-0.656,0.816
		c-0.285,0.244-0.641,0.445-1.068,0.604c-0.428,0.156-0.952,0.234-1.572,0.234c-1.027,0-1.795-0.246-2.304-0.738
		c-0.509-0.492-0.763-1.156-0.763-1.99c0-0.643,0.079-1.275,0.237-1.9c0.157-0.627,0.409-1.182,0.755-1.672
		c0.345-0.488,0.793-0.881,1.343-1.182c0.549-0.299,1.22-0.449,2.014-0.449c0.884,0,1.569,0.195,2.052,0.588
		c0.483,0.391,0.725,0.988,0.725,1.791c0,0.225-0.016,0.494-0.046,0.809c-0.031,0.316-0.087,0.656-0.168,1.023h-5.767
		c-0.031,0.191-0.049,0.346-0.054,0.461c-0.005,0.117-0.007,0.262-0.007,0.434c0,0.363,0.05,0.672,0.152,0.92
		c0.101,0.246,0.246,0.447,0.435,0.605c0.188,0.158,0.409,0.268,0.664,0.334c0.254,0.066,0.534,0.098,0.839,0.098
		c0.386,0,0.717-0.045,0.992-0.135c0.274-0.09,0.511-0.213,0.709-0.363c0.198-0.15,0.361-0.326,0.488-0.529
		c0.127-0.201,0.226-0.412,0.298-0.635H103.54z M102.837,156.66c0.041-0.193,0.069-0.361,0.084-0.504
		c0.016-0.143,0.023-0.289,0.023-0.443c0-0.52-0.137-0.922-0.412-1.213c-0.275-0.289-0.758-0.436-1.449-0.436
		c-1.547,0-2.523,0.865-2.93,2.596H102.837z"/>
	<path fill="#1D1D1B" d="M112.938,161.007l0.351-1.557c-0.112,0.234-0.254,0.455-0.427,0.664c-0.173,0.209-0.379,0.395-0.618,0.557
		c-0.239,0.162-0.509,0.289-0.809,0.383c-0.3,0.092-0.633,0.137-0.999,0.137c-0.865,0-1.528-0.242-1.991-0.725
		c-0.463-0.482-0.695-1.156-0.695-2.021c0-0.408,0.036-0.822,0.107-1.244c0.071-0.422,0.181-0.83,0.328-1.221
		s0.338-0.758,0.573-1.098c0.234-0.342,0.513-0.635,0.839-0.879c0.376-0.273,0.763-0.467,1.159-0.578
		c0.397-0.113,0.824-0.168,1.282-0.168c0.264,0,0.516,0.031,0.755,0.1c0.239,0.064,0.458,0.164,0.656,0.297
		c0.199,0.131,0.366,0.301,0.504,0.51c0.137,0.209,0.226,0.455,0.267,0.74l0.931-4.439h1.037l-2.228,10.543H112.938z
		 M113.869,155.968c0-0.629-0.158-1.094-0.473-1.395c-0.316-0.297-0.753-0.447-1.312-0.447c-0.357,0-0.685,0.049-0.985,0.145
		s-0.587,0.26-0.861,0.494c-0.224,0.193-0.425,0.424-0.603,0.691c-0.178,0.271-0.323,0.561-0.435,0.869
		c-0.112,0.309-0.198,0.629-0.259,0.957c-0.061,0.33-0.092,0.654-0.092,0.967c0,0.67,0.165,1.184,0.496,1.539
		c0.33,0.355,0.816,0.533,1.457,0.533c0.356,0,0.679-0.061,0.969-0.184c0.29-0.121,0.547-0.293,0.77-0.518
		c0.224-0.213,0.417-0.463,0.58-0.746s0.3-0.588,0.412-0.914c0.112-0.322,0.196-0.656,0.252-0.996S113.869,156.292,113.869,155.968"
		/>
	<path fill="#1D1D1B" d="M123.207,158.658c-0.061,0.285-0.168,0.576-0.32,0.877c-0.153,0.301-0.372,0.572-0.656,0.816
		c-0.285,0.244-0.641,0.445-1.068,0.604c-0.428,0.156-0.952,0.234-1.572,0.234c-1.027,0-1.795-0.246-2.304-0.738
		c-0.509-0.492-0.763-1.156-0.763-1.99c0-0.643,0.079-1.275,0.237-1.9c0.157-0.627,0.409-1.182,0.755-1.672
		c0.345-0.488,0.793-0.881,1.343-1.182c0.549-0.299,1.22-0.449,2.014-0.449c0.884,0,1.569,0.195,2.052,0.588
		c0.483,0.391,0.725,0.988,0.725,1.791c0,0.225-0.016,0.494-0.046,0.809c-0.031,0.316-0.087,0.656-0.168,1.023h-5.767
		c-0.031,0.191-0.049,0.346-0.054,0.461c-0.005,0.117-0.007,0.262-0.007,0.434c0,0.363,0.05,0.672,0.152,0.92
		c0.101,0.246,0.246,0.447,0.435,0.605c0.188,0.158,0.409,0.268,0.664,0.334c0.254,0.066,0.534,0.098,0.839,0.098
		c0.386,0,0.717-0.045,0.992-0.135c0.274-0.09,0.511-0.213,0.709-0.363c0.198-0.15,0.361-0.326,0.488-0.529
		c0.127-0.201,0.226-0.412,0.298-0.635H123.207z M122.504,156.66c0.041-0.193,0.069-0.361,0.084-0.504
		c0.016-0.143,0.023-0.289,0.023-0.443c0-0.52-0.137-0.922-0.412-1.213c-0.275-0.289-0.758-0.436-1.449-0.436
		c-1.547,0-2.523,0.865-2.93,2.596H122.504z"/>
	<path fill="#1D1D1B" d="M127.997,161.236c-0.01,0.07-0.015,0.141-0.015,0.205v0.178c0,0.457,0.17,0.793,0.511,1.006
		c0.341,0.215,0.796,0.32,1.366,0.32c0.345,0,0.638-0.027,0.877-0.084c0.239-0.057,0.445-0.133,0.618-0.229
		c0.173-0.096,0.32-0.209,0.442-0.336c0.122-0.127,0.229-0.266,0.321-0.418c0.112-0.174,0.226-0.449,0.343-0.826
		c0.117-0.375,0.216-0.748,0.298-1.113l0.198-0.854c-0.204,0.477-0.537,0.877-1,1.197c-0.463,0.32-1.075,0.48-1.838,0.48
		c-0.875,0-1.539-0.236-1.991-0.711c-0.453-0.471-0.679-1.121-0.679-1.945c0-0.822,0.14-1.596,0.419-2.316
		c0.28-0.725,0.75-1.328,1.412-1.818c0.356-0.262,0.727-0.449,1.114-0.555c0.386-0.107,0.818-0.16,1.297-0.16
		c0.254,0,0.503,0.033,0.747,0.098c0.244,0.066,0.466,0.168,0.664,0.307c0.198,0.137,0.366,0.311,0.503,0.525
		c0.138,0.215,0.221,0.469,0.252,0.764l0.321-1.512h1.006l-1.358,6.395c-0.132,0.6-0.276,1.143-0.434,1.633
		c-0.158,0.488-0.38,0.889-0.664,1.205c-0.325,0.365-0.737,0.643-1.236,0.832c-0.499,0.186-1.114,0.281-1.846,0.281
		c-0.478,0-0.89-0.055-1.236-0.16c-0.346-0.107-0.628-0.25-0.847-0.428c-0.218-0.178-0.381-0.385-0.488-0.617
		c-0.107-0.234-0.16-0.484-0.16-0.748v-0.32c0-0.102,0.01-0.193,0.03-0.275H127.997z M133.49,155.988c0-0.643-0.16-1.111-0.48-1.412
		c-0.321-0.299-0.746-0.449-1.275-0.449c-0.356,0-0.692,0.043-1.007,0.129s-0.605,0.248-0.869,0.482
		c-0.448,0.385-0.776,0.855-0.985,1.41c-0.208,0.555-0.312,1.146-0.312,1.777c0,0.662,0.17,1.166,0.511,1.51
		c0.34,0.348,0.821,0.52,1.442,0.52c0.386,0,0.732-0.07,1.037-0.213c0.305-0.145,0.572-0.33,0.801-0.566
		c0.229-0.232,0.42-0.504,0.573-0.814c0.152-0.311,0.274-0.635,0.366-0.971c0.081-0.295,0.135-0.559,0.16-0.793
		C133.477,156.365,133.49,156.162,133.49,155.988"/>
	<path fill="#1D1D1B" d="M142.844,158.658c-0.062,0.285-0.168,0.576-0.321,0.877c-0.153,0.301-0.372,0.572-0.656,0.816
		c-0.285,0.244-0.641,0.445-1.068,0.604c-0.428,0.156-0.952,0.234-1.572,0.234c-1.027,0-1.795-0.246-2.304-0.738
		c-0.509-0.492-0.763-1.156-0.763-1.99c0-0.643,0.079-1.275,0.237-1.9c0.157-0.627,0.409-1.182,0.755-1.672
		c0.345-0.488,0.793-0.881,1.343-1.182c0.549-0.299,1.22-0.449,2.014-0.449c0.884,0,1.569,0.195,2.052,0.588
		c0.483,0.391,0.724,0.988,0.724,1.791c0,0.225-0.015,0.494-0.045,0.809c-0.031,0.316-0.087,0.656-0.168,1.023h-5.767
		c-0.031,0.191-0.049,0.346-0.054,0.461c-0.005,0.117-0.007,0.262-0.007,0.434c0,0.363,0.05,0.672,0.152,0.92
		c0.101,0.246,0.246,0.447,0.435,0.605c0.188,0.158,0.409,0.268,0.664,0.334c0.254,0.066,0.534,0.098,0.839,0.098
		c0.386,0,0.717-0.045,0.992-0.135c0.274-0.09,0.511-0.213,0.709-0.363c0.198-0.15,0.361-0.326,0.488-0.529
		c0.127-0.201,0.226-0.412,0.298-0.635H142.844z M142.141,156.66c0.041-0.193,0.069-0.361,0.084-0.504
		c0.016-0.143,0.023-0.289,0.023-0.443c0-0.52-0.137-0.922-0.412-1.213c-0.275-0.289-0.758-0.436-1.449-0.436
		c-1.547,0-2.523,0.865-2.93,2.596H142.141z"/>
	<path fill="#1D1D1B" d="M144.796,158.642v0.322c0,0.906,0.615,1.357,1.847,1.357c0.274,0,0.536-0.025,0.785-0.07
		s0.471-0.119,0.664-0.221c0.193-0.104,0.349-0.242,0.465-0.42c0.117-0.18,0.176-0.396,0.176-0.652c0-0.121-0.018-0.234-0.054-0.342
		c-0.035-0.107-0.107-0.207-0.213-0.299c-0.107-0.092-0.26-0.178-0.458-0.26c-0.198-0.082-0.455-0.164-0.771-0.244l-0.946-0.262
		c-1.088-0.305-1.632-0.936-1.632-1.895c0-0.795,0.284-1.395,0.854-1.797c0.57-0.404,1.353-0.605,2.35-0.605
		c0.773,0,1.375,0.152,1.808,0.451s0.648,0.754,0.648,1.365v0.215c0,0.09-0.009,0.188-0.03,0.289h-0.976
		c0.009-0.051,0.015-0.113,0.015-0.184v-0.168c0-0.314-0.115-0.576-0.344-0.785c-0.228-0.209-0.632-0.313-1.212-0.313
		c-0.265,0-0.519,0.021-0.763,0.061c-0.244,0.041-0.461,0.113-0.649,0.223c-0.188,0.105-0.338,0.246-0.45,0.418
		c-0.112,0.172-0.168,0.391-0.168,0.656c0,0.314,0.084,0.557,0.252,0.725c0.168,0.168,0.506,0.324,1.015,0.465l1.007,0.291
		c0.661,0.184,1.124,0.416,1.388,0.701c0.264,0.285,0.397,0.646,0.397,1.084c0,0.457-0.087,0.842-0.26,1.152
		c-0.173,0.309-0.409,0.561-0.709,0.756c-0.301,0.193-0.648,0.33-1.046,0.41c-0.396,0.082-0.823,0.123-1.281,0.123
		c-0.936,0-1.625-0.193-2.067-0.58c-0.443-0.387-0.664-0.869-0.664-1.449c0-0.082,0.002-0.168,0.007-0.26s0.013-0.178,0.024-0.26
		H144.796z"/>
	<path fill="#1D1D1B" d="M154.393,160.992c-0.151,0.051-0.332,0.092-0.541,0.123c-0.209,0.029-0.461,0.045-0.756,0.045
		c-0.428,0-0.781-0.1-1.06-0.297c-0.281-0.199-0.42-0.543-0.42-1.029c0-0.203,0.017-0.418,0.053-0.643
		c0.036-0.223,0.079-0.467,0.13-0.73l0.915-4.211h-1.113l0.183-0.811h1.098l0.458-2.029h1.008l-0.428,2.029h1.816l-0.168,0.811
		h-1.816l-0.9,4.193c-0.051,0.256-0.088,0.477-0.113,0.664c-0.026,0.189-0.038,0.344-0.038,0.467c0,0.498,0.29,0.746,0.868,0.746
		c0.193,0,0.38-0.012,0.558-0.037c0.179-0.025,0.333-0.063,0.465-0.113L154.393,160.992z"/>
	<path fill="#1D1D1B" d="M155.811,161.007l1.604-7.568h1.037l-1.602,7.568H155.811z M157.704,151.914l0.291-1.449h1.129
		l-0.307,1.449H157.704z"/>
	<path fill="#1D1D1B" d="M166.646,155.988c0,0.334-0.028,0.691-0.084,1.068s-0.143,0.748-0.259,1.113
		c-0.117,0.367-0.271,0.717-0.458,1.053c-0.188,0.336-0.42,0.635-0.694,0.9c-0.723,0.713-1.679,1.066-2.869,1.066
		c-1.018,0-1.766-0.246-2.242-0.738c-0.479-0.492-0.717-1.184-0.717-2.066c0-0.316,0.026-0.652,0.084-1.008
		c0.056-0.357,0.14-0.709,0.25-1.061c0.112-0.352,0.263-0.691,0.45-1.021c0.189-0.332,0.409-0.629,0.664-0.895
		c0.388-0.406,0.83-0.697,1.328-0.877c0.498-0.178,1.063-0.266,1.693-0.266c0.926,0,1.633,0.223,2.121,0.67
		C166.402,154.376,166.646,155.062,166.646,155.988 M165.563,156.083c0-0.703-0.171-1.205-0.512-1.506s-0.821-0.451-1.441-0.451
		c-0.458,0-0.864,0.072-1.221,0.223c-0.357,0.146-0.677,0.389-0.961,0.725c-0.164,0.205-0.308,0.438-0.436,0.695
		c-0.128,0.262-0.233,0.535-0.32,0.82c-0.086,0.285-0.15,0.574-0.191,0.863c-0.041,0.291-0.06,0.563-0.06,0.818
		c0,0.703,0.173,1.223,0.518,1.553c0.347,0.33,0.855,0.496,1.526,0.496c0.387,0,0.742-0.055,1.068-0.168
		c0.325-0.111,0.62-0.311,0.885-0.596c0.193-0.205,0.361-0.455,0.504-0.75c0.142-0.295,0.262-0.604,0.358-0.924
		c0.097-0.322,0.167-0.641,0.214-0.957C165.54,156.609,165.563,156.33,165.563,156.083 M162.969,152.205l2.212-2.502h1.206
		l-2.503,2.502H162.969z"/>
	<path fill="#1D1D1B" d="M167.637,161.007l1.603-7.568h1.037l-0.351,1.602c0.102-0.223,0.239-0.441,0.412-0.654
		c0.173-0.215,0.382-0.402,0.626-0.566c0.243-0.162,0.526-0.293,0.847-0.395c0.32-0.104,0.668-0.152,1.045-0.152
		c0.295,0,0.572,0.033,0.831,0.098c0.26,0.066,0.483,0.168,0.672,0.307c0.188,0.137,0.336,0.316,0.442,0.541
		c0.107,0.225,0.16,0.498,0.16,0.822c0,0.195-0.013,0.412-0.038,0.656c-0.025,0.246-0.068,0.514-0.13,0.811l-0.946,4.5h-1.037
		l0.915-4.379c0.092-0.447,0.138-0.834,0.138-1.16c0-0.488-0.135-0.826-0.404-1.016c-0.27-0.186-0.648-0.281-1.137-0.281
		c-0.274,0-0.526,0.033-0.755,0.1c-0.229,0.066-0.43,0.15-0.603,0.252c-0.174,0.102-0.321,0.213-0.443,0.336
		c-0.122,0.121-0.224,0.234-0.305,0.336c-0.183,0.264-0.331,0.553-0.442,0.869c-0.112,0.314-0.204,0.652-0.274,1.006l-0.824,3.938
		H167.637z"/>
	<path fill="#1D1D1B" d="M178.196,162.824c0.081,0.02,0.188,0.041,0.32,0.061s0.265,0.031,0.396,0.031
		c0.295,0,0.542-0.049,0.74-0.146c0.198-0.096,0.368-0.217,0.511-0.357c0.112-0.113,0.239-0.275,0.382-0.482
		c0.143-0.209,0.3-0.457,0.473-0.742l0.352-0.551l-1.663-7.197h1.067c0.275,1.221,0.493,2.193,0.656,2.914
		c0.162,0.723,0.29,1.295,0.382,1.717c0.092,0.424,0.157,0.734,0.198,0.939c0.039,0.203,0.076,0.391,0.106,0.564
		c0.112-0.193,0.231-0.402,0.358-0.625c0.128-0.225,0.318-0.551,0.572-0.979c0.255-0.426,0.596-1,1.022-1.715
		c0.428-0.717,0.992-1.656,1.693-2.816h1.175l-4.287,6.957c-0.184,0.295-0.401,0.646-0.656,1.055
		c-0.254,0.406-0.514,0.787-0.777,1.143c-0.356,0.479-0.726,0.797-1.106,0.955c-0.382,0.158-0.816,0.236-1.305,0.236
		c-0.143,0-0.292-0.012-0.45-0.031c-0.157-0.021-0.272-0.039-0.344-0.061L178.196,162.824z"/>
	<path fill="#1D1D1B" d="M194.048,161.007l0.244-1.221c-0.255,0.428-0.598,0.768-1.03,1.021s-1.015,0.383-1.747,0.383
		c-0.366,0-0.689-0.053-0.969-0.152c-0.28-0.104-0.511-0.242-0.694-0.42c-0.183-0.178-0.323-0.383-0.419-0.617
		c-0.098-0.236-0.146-0.479-0.146-0.734c0-0.467,0.094-0.875,0.282-1.221c0.188-0.344,0.501-0.629,0.938-0.854
		c0.203-0.102,0.427-0.186,0.671-0.252c0.244-0.064,0.524-0.115,0.839-0.152c0.316-0.035,0.683-0.059,1.1-0.068
		s0.905-0.016,1.465-0.016h0.335l0.122-0.52c0.051-0.201,0.082-0.375,0.092-0.518s0.016-0.27,0.016-0.381
		c0-0.367-0.122-0.658-0.366-0.871s-0.661-0.32-1.251-0.32c-0.702,0-1.227,0.125-1.572,0.373c-0.346,0.25-0.569,0.691-0.671,1.322
		h-1.007c0.061-0.387,0.165-0.74,0.313-1.053c0.147-0.316,0.355-0.584,0.626-0.803c0.269-0.219,0.603-0.387,0.999-0.504
		c0.396-0.115,0.875-0.176,1.435-0.176c0.366,0,0.704,0.031,1.015,0.092c0.31,0.063,0.574,0.16,0.793,0.297
		c0.219,0.139,0.392,0.324,0.518,0.559c0.127,0.232,0.192,0.529,0.192,0.885c0,0.164-0.014,0.357-0.039,0.58
		c-0.026,0.223-0.069,0.477-0.129,0.762l-0.962,4.578H194.048z M194.415,157.484c-0.458,0-0.847,0.004-1.167,0.016
		c-0.321,0.008-0.593,0.025-0.816,0.045c-0.225,0.021-0.415,0.045-0.572,0.076c-0.158,0.031-0.299,0.066-0.42,0.107
		c-0.337,0.111-0.603,0.273-0.801,0.484c-0.198,0.209-0.298,0.512-0.298,0.912c0,0.469,0.152,0.797,0.458,0.982
		c0.304,0.184,0.676,0.273,1.113,0.273c0.326,0,0.605-0.033,0.84-0.098c0.233-0.066,0.434-0.154,0.603-0.262
		c0.168-0.107,0.311-0.223,0.427-0.346c0.117-0.123,0.217-0.234,0.298-0.338c0.122-0.162,0.234-0.359,0.336-0.588
		c0.102-0.232,0.178-0.459,0.229-0.684l0.138-0.582H194.415z"/>
	<path fill="#1D1D1B" d="M205.278,153.439l-1.602,7.568h-1.038l0.336-1.541c-0.214,0.447-0.564,0.842-1.053,1.184
		c-0.488,0.34-1.109,0.51-1.861,0.51c-0.296,0-0.572-0.031-0.832-0.092c-0.259-0.061-0.485-0.162-0.68-0.305
		c-0.192-0.143-0.345-0.324-0.458-0.549c-0.111-0.223-0.167-0.494-0.167-0.809c0-0.398,0.062-0.887,0.184-1.465l0.961-4.502h1.038
		l-0.933,4.395c-0.05,0.223-0.088,0.432-0.113,0.627c-0.025,0.193-0.038,0.365-0.038,0.518c0,0.488,0.14,0.828,0.42,1.023
		c0.279,0.193,0.664,0.289,1.152,0.289c0.284,0,0.536-0.039,0.755-0.115s0.412-0.168,0.58-0.273
		c0.167-0.107,0.313-0.225,0.435-0.352s0.224-0.236,0.305-0.328c0.204-0.244,0.354-0.516,0.45-0.816
		c0.096-0.299,0.186-0.627,0.268-0.984l0.854-3.982H205.278z"/>
	<path fill="#1D1D1B" d="M209.565,160.992c-0.152,0.051-0.333,0.092-0.542,0.123c-0.208,0.029-0.46,0.045-0.755,0.045
		c-0.428,0-0.781-0.1-1.061-0.297c-0.28-0.199-0.42-0.543-0.42-1.029c0-0.203,0.018-0.418,0.054-0.643
		c0.035-0.223,0.078-0.467,0.13-0.73l0.915-4.211h-1.113l0.183-0.811h1.099l0.458-2.029h1.007l-0.427,2.029h1.815l-0.168,0.811
		h-1.815l-0.9,4.193c-0.051,0.256-0.089,0.477-0.114,0.664c-0.025,0.189-0.038,0.344-0.038,0.467c0,0.498,0.29,0.746,0.869,0.746
		c0.193,0,0.379-0.012,0.558-0.037c0.178-0.025,0.333-0.063,0.465-0.113L209.565,160.992z"/>
	<path fill="#1D1D1B" d="M218.292,155.988c0,0.334-0.028,0.691-0.084,1.068s-0.143,0.748-0.259,1.113
		c-0.117,0.365-0.271,0.717-0.458,1.053c-0.188,0.336-0.42,0.635-0.694,0.9c-0.723,0.713-1.679,1.066-2.868,1.066
		c-1.018,0-1.766-0.246-2.243-0.738c-0.479-0.492-0.717-1.182-0.717-2.066c0-0.316,0.027-0.652,0.084-1.008
		c0.056-0.355,0.14-0.709,0.251-1.061c0.112-0.352,0.262-0.691,0.45-1.021c0.188-0.332,0.409-0.629,0.664-0.895
		c0.387-0.406,0.829-0.699,1.327-0.877s1.063-0.266,1.692-0.266c0.927,0,1.634,0.223,2.122,0.67
		C218.048,154.376,218.292,155.062,218.292,155.988 M217.209,156.083c0-0.703-0.171-1.205-0.512-1.506s-0.821-0.451-1.441-0.451
		c-0.458,0-0.864,0.072-1.221,0.223c-0.356,0.146-0.677,0.389-0.961,0.725c-0.163,0.205-0.308,0.438-0.436,0.697
		c-0.127,0.26-0.233,0.533-0.32,0.818c-0.086,0.285-0.149,0.572-0.19,0.863s-0.061,0.564-0.061,0.818
		c0,0.705,0.173,1.221,0.519,1.553c0.346,0.33,0.854,0.496,1.525,0.496c0.387,0,0.742-0.055,1.068-0.168
		c0.325-0.111,0.62-0.311,0.885-0.596c0.193-0.203,0.361-0.453,0.504-0.75c0.142-0.295,0.262-0.604,0.358-0.924
		c0.097-0.322,0.168-0.641,0.214-0.957C217.186,156.609,217.209,156.328,217.209,156.083"/>
	<path fill="#1D1D1B" d="M219.284,161.007l1.604-7.568h1.036l-0.351,1.602c0.102-0.223,0.239-0.441,0.412-0.654
		c0.173-0.215,0.379-0.402,0.618-0.566c0.238-0.162,0.514-0.293,0.823-0.395c0.311-0.104,0.654-0.152,1.03-0.152
		c0.62,0,1.111,0.135,1.474,0.41c0.359,0.275,0.541,0.678,0.541,1.207v0.258c0.101-0.234,0.243-0.461,0.427-0.688
		c0.183-0.223,0.399-0.422,0.648-0.594s0.534-0.314,0.854-0.428c0.321-0.111,0.674-0.166,1.061-0.166c0.6,0,1.099,0.133,1.495,0.404
		c0.396,0.268,0.595,0.725,0.595,1.363c0,0.398-0.061,0.887-0.183,1.467l-0.946,4.5h-1.053l0.931-4.379
		c0.051-0.215,0.089-0.426,0.114-0.635c0.025-0.207,0.038-0.383,0.038-0.525c0-0.488-0.135-0.826-0.404-1.016
		c-0.27-0.186-0.623-0.281-1.061-0.281c-0.274,0-0.523,0.035-0.747,0.107s-0.42,0.16-0.588,0.266
		c-0.168,0.109-0.313,0.221-0.435,0.338c-0.122,0.115-0.224,0.227-0.306,0.326c-0.191,0.256-0.338,0.527-0.435,0.818
		c-0.097,0.289-0.181,0.596-0.252,0.922l-0.869,4.059h-1.038l0.931-4.395c0.051-0.213,0.087-0.422,0.107-0.625
		c0.021-0.205,0.03-0.377,0.03-0.52c0-0.488-0.122-0.826-0.366-1.016c-0.244-0.186-0.61-0.281-1.099-0.281
		c-0.274,0-0.521,0.035-0.74,0.107s-0.411,0.16-0.579,0.266c-0.168,0.109-0.311,0.221-0.428,0.338
		c-0.117,0.115-0.216,0.227-0.297,0.326c-0.204,0.256-0.356,0.523-0.458,0.803s-0.188,0.598-0.26,0.953l-0.839,4.043H219.284z"/>
	<path fill="#1D1D1B" d="M237.425,161.007l0.244-1.221c-0.255,0.428-0.598,0.768-1.03,1.021s-1.015,0.383-1.747,0.383
		c-0.366,0-0.689-0.053-0.969-0.152c-0.28-0.104-0.511-0.242-0.694-0.42c-0.183-0.178-0.323-0.383-0.419-0.617
		c-0.098-0.236-0.146-0.479-0.146-0.734c0-0.467,0.094-0.875,0.282-1.221c0.188-0.344,0.501-0.629,0.938-0.854
		c0.203-0.102,0.428-0.186,0.671-0.252c0.244-0.064,0.524-0.115,0.839-0.152c0.316-0.035,0.683-0.059,1.1-0.068
		s0.905-0.016,1.465-0.016h0.335l0.122-0.52c0.051-0.201,0.082-0.375,0.092-0.518s0.016-0.27,0.016-0.381
		c0-0.367-0.122-0.658-0.366-0.871s-0.661-0.32-1.251-0.32c-0.702,0-1.227,0.125-1.572,0.373c-0.346,0.25-0.569,0.691-0.671,1.322
		h-1.007c0.061-0.387,0.165-0.74,0.313-1.053c0.147-0.316,0.355-0.584,0.626-0.803c0.269-0.219,0.603-0.387,0.999-0.504
		c0.396-0.115,0.875-0.176,1.435-0.176c0.366,0,0.704,0.031,1.015,0.092c0.31,0.063,0.574,0.16,0.793,0.297
		c0.219,0.139,0.392,0.324,0.518,0.559c0.128,0.232,0.192,0.529,0.192,0.885c0,0.164-0.014,0.357-0.039,0.58
		s-0.069,0.477-0.129,0.762l-0.962,4.578H237.425z M237.792,157.484c-0.458,0-0.847,0.004-1.167,0.016
		c-0.321,0.008-0.593,0.025-0.816,0.045c-0.225,0.021-0.415,0.045-0.572,0.076c-0.158,0.031-0.298,0.066-0.42,0.107
		c-0.337,0.111-0.603,0.273-0.801,0.484c-0.198,0.209-0.298,0.512-0.298,0.912c0,0.469,0.152,0.797,0.458,0.982
		c0.304,0.184,0.676,0.273,1.113,0.273c0.326,0,0.605-0.033,0.84-0.098c0.233-0.066,0.435-0.154,0.603-0.262
		s0.311-0.223,0.427-0.346c0.117-0.123,0.217-0.234,0.298-0.338c0.122-0.162,0.234-0.359,0.336-0.588
		c0.102-0.232,0.178-0.459,0.229-0.684l0.138-0.582H237.792z"/>
	<path fill="#1D1D1B" d="M244.276,160.992c-0.152,0.051-0.333,0.092-0.542,0.123c-0.208,0.029-0.46,0.045-0.755,0.045
		c-0.428,0-0.781-0.1-1.061-0.297c-0.28-0.199-0.42-0.543-0.42-1.029c0-0.203,0.018-0.418,0.054-0.643
		c0.036-0.223,0.079-0.467,0.13-0.73l0.915-4.211h-1.113l0.183-0.811h1.099l0.458-2.029h1.007l-0.427,2.029h1.815l-0.168,0.811
		h-1.815l-0.9,4.193c-0.051,0.256-0.089,0.477-0.114,0.664c-0.025,0.189-0.038,0.344-0.038,0.467c0,0.498,0.29,0.746,0.869,0.746
		c0.193,0,0.379-0.012,0.558-0.037c0.178-0.025,0.333-0.063,0.465-0.113L244.276,160.992z"/>
	<path fill="#1D1D1B" d="M245.695,161.007l1.603-7.568h1.037l-1.602,7.568H245.695z M247.587,151.914l0.29-1.449h1.129l-0.306,1.449
		H247.587z"/>
	<polygon fill="#1D1D1B" points="248.396,161.007 248.502,160.382 254.194,154.279 249.921,154.279 250.104,153.439 
		255.735,153.439 255.597,154.068 249.875,160.199 254.789,160.199 254.636,161.007 	"/>
	<path fill="#1D1D1B" d="M260.51,161.007l0.244-1.221c-0.255,0.428-0.598,0.768-1.03,1.021s-1.015,0.383-1.747,0.383
		c-0.366,0-0.689-0.053-0.969-0.152c-0.28-0.104-0.511-0.242-0.693-0.42c-0.184-0.178-0.324-0.383-0.42-0.617
		c-0.098-0.236-0.146-0.479-0.146-0.734c0-0.467,0.094-0.875,0.282-1.221c0.188-0.344,0.501-0.629,0.938-0.854
		c0.203-0.102,0.428-0.186,0.671-0.252c0.244-0.064,0.524-0.115,0.84-0.152c0.315-0.035,0.682-0.059,1.099-0.068
		s0.905-0.016,1.465-0.016h0.335l0.122-0.52c0.051-0.201,0.082-0.375,0.092-0.518s0.016-0.27,0.016-0.381
		c0-0.367-0.122-0.658-0.366-0.871s-0.661-0.32-1.251-0.32c-0.702,0-1.227,0.125-1.572,0.373c-0.346,0.25-0.569,0.691-0.671,1.322
		h-1.007c0.061-0.387,0.165-0.74,0.313-1.053c0.147-0.316,0.355-0.584,0.626-0.803c0.269-0.219,0.603-0.387,0.999-0.504
		c0.396-0.115,0.875-0.176,1.435-0.176c0.367,0,0.704,0.031,1.015,0.092c0.31,0.063,0.574,0.16,0.793,0.297
		c0.219,0.139,0.392,0.324,0.519,0.559c0.127,0.232,0.191,0.529,0.191,0.885c0,0.164-0.014,0.357-0.039,0.58
		s-0.068,0.477-0.129,0.762l-0.962,4.578H260.51z M260.876,157.484c-0.458,0-0.847,0.004-1.167,0.016
		c-0.321,0.008-0.593,0.025-0.816,0.045c-0.225,0.021-0.415,0.045-0.572,0.076c-0.158,0.031-0.298,0.066-0.42,0.107
		c-0.336,0.111-0.603,0.273-0.801,0.484c-0.198,0.209-0.298,0.512-0.298,0.912c0,0.469,0.152,0.797,0.458,0.982
		c0.305,0.184,0.676,0.273,1.113,0.273c0.326,0,0.605-0.033,0.84-0.098c0.233-0.066,0.435-0.154,0.603-0.262
		s0.311-0.223,0.427-0.346c0.117-0.123,0.217-0.234,0.298-0.338c0.122-0.162,0.234-0.359,0.336-0.588
		c0.102-0.232,0.178-0.459,0.229-0.684l0.137-0.582H260.876z"/>
	<path fill="#1D1D1B" d="M270.641,158.474c-0.081,0.387-0.206,0.746-0.374,1.076c-0.167,0.33-0.394,0.617-0.679,0.861
		c-0.285,0.246-0.639,0.436-1.061,0.574c-0.422,0.135-0.928,0.205-1.518,0.205c-0.967,0-1.701-0.246-2.205-0.74
		s-0.755-1.178-0.755-2.053c0-0.387,0.035-0.783,0.106-1.189c0.071-0.408,0.181-0.801,0.328-1.182
		c0.147-0.383,0.341-0.742,0.58-1.084c0.238-0.34,0.526-0.639,0.861-0.895c0.366-0.273,0.761-0.473,1.183-0.602
		c0.422-0.127,0.888-0.191,1.396-0.191c0.885,0,1.535,0.178,1.953,0.527c0.417,0.35,0.625,0.863,0.625,1.533
		c0,0.133-0.002,0.26-0.008,0.383c-0.005,0.121-0.018,0.254-0.038,0.395h-1.021c0.01-0.07,0.02-0.158,0.03-0.266
		c0.01-0.107,0.015-0.207,0.015-0.297c0-0.184-0.021-0.359-0.061-0.527c-0.041-0.168-0.122-0.314-0.244-0.441
		s-0.293-0.232-0.512-0.314s-0.506-0.121-0.861-0.121c-0.306,0-0.603,0.035-0.893,0.107c-0.29,0.068-0.557,0.191-0.801,0.365
		c-0.255,0.182-0.479,0.412-0.672,0.691s-0.354,0.58-0.48,0.906c-0.127,0.324-0.224,0.662-0.29,1.012s-0.099,0.693-0.099,1.027
		c0,0.416,0.058,0.758,0.175,1.027s0.272,0.482,0.466,0.639c0.192,0.158,0.412,0.266,0.656,0.328
		c0.244,0.061,0.493,0.092,0.747,0.092c0.396,0,0.737-0.053,1.022-0.16c0.284-0.105,0.526-0.244,0.725-0.416
		c0.198-0.17,0.354-0.369,0.466-0.59c0.111-0.221,0.188-0.449,0.229-0.682H270.641z"/>
	<path fill="#1D1D1B" d="M271.907,161.007l1.603-7.568h1.037l-1.601,7.568H271.907z M273.799,151.914l0.29-1.449h1.129l-0.306,1.449
		H273.799z"/>
	<path fill="#1D1D1B" d="M282.74,155.988c0,0.334-0.028,0.691-0.084,1.068s-0.143,0.748-0.259,1.113
		c-0.117,0.367-0.271,0.717-0.458,1.053s-0.42,0.635-0.694,0.9c-0.723,0.713-1.679,1.066-2.868,1.066
		c-1.018,0-1.766-0.246-2.243-0.738c-0.479-0.492-0.717-1.184-0.717-2.066c0-0.316,0.027-0.652,0.084-1.008
		c0.056-0.357,0.14-0.709,0.251-1.061c0.112-0.352,0.262-0.691,0.45-1.021c0.188-0.332,0.409-0.629,0.664-0.895
		c0.387-0.406,0.829-0.697,1.327-0.877c0.498-0.178,1.063-0.266,1.693-0.266c0.926,0,1.633,0.223,2.121,0.67
		C282.496,154.376,282.74,155.062,282.74,155.988 M281.657,156.083c0-0.703-0.171-1.205-0.512-1.506s-0.821-0.451-1.441-0.451
		c-0.458,0-0.864,0.072-1.221,0.223c-0.356,0.146-0.677,0.389-0.961,0.725c-0.163,0.205-0.308,0.438-0.436,0.695
		c-0.127,0.262-0.233,0.535-0.32,0.82c-0.086,0.285-0.149,0.574-0.19,0.863c-0.041,0.291-0.061,0.563-0.061,0.818
		c0,0.703,0.173,1.223,0.519,1.553s0.854,0.496,1.525,0.496c0.387,0,0.742-0.055,1.068-0.168c0.325-0.111,0.62-0.311,0.885-0.596
		c0.193-0.205,0.361-0.455,0.504-0.75c0.142-0.295,0.262-0.604,0.359-0.924c0.096-0.322,0.166-0.641,0.213-0.957
		C281.633,156.609,281.657,156.33,281.657,156.083 M279.063,152.205l2.212-2.502h1.206l-2.503,2.502H279.063z"/>
	<path fill="#1D1D1B" d="M283.731,161.007l1.603-7.568h1.037l-0.351,1.602c0.102-0.223,0.239-0.441,0.412-0.654
		c0.173-0.215,0.382-0.402,0.626-0.566c0.243-0.162,0.526-0.293,0.847-0.395c0.32-0.104,0.668-0.152,1.045-0.152
		c0.295,0,0.572,0.033,0.831,0.098c0.26,0.066,0.483,0.168,0.672,0.307c0.188,0.137,0.336,0.316,0.442,0.541s0.16,0.498,0.16,0.822
		c0,0.195-0.013,0.412-0.038,0.656c-0.025,0.246-0.068,0.514-0.13,0.811l-0.946,4.5h-1.037l0.915-4.379
		c0.092-0.447,0.138-0.834,0.138-1.16c0-0.488-0.135-0.826-0.404-1.016c-0.27-0.186-0.648-0.281-1.137-0.281
		c-0.274,0-0.526,0.033-0.755,0.1c-0.229,0.066-0.43,0.15-0.603,0.252c-0.174,0.102-0.321,0.213-0.443,0.336
		c-0.122,0.121-0.224,0.234-0.305,0.336c-0.184,0.264-0.331,0.553-0.442,0.869c-0.113,0.314-0.204,0.652-0.274,1.006l-0.824,3.938
		H283.731z"/>
	<path fill="#006BA9" d="M47.392,175.636l2.197-10.357h1.984l-0.291,1.402c0.266-0.518,0.651-0.912,1.156-1.184
		c0.505-0.268,1.028-0.404,1.569-0.404c0.826,0,1.435,0.207,1.828,0.619s0.59,0.998,0.59,1.762c0,0.336-0.021,0.686-0.062,1.047
		c-0.041,0.359-0.107,0.721-0.199,1.082c-0.092,0.361-0.212,0.717-0.36,1.068c-0.147,0.352-0.334,0.678-0.558,0.984
		c-0.357,0.488-0.773,0.846-1.247,1.076c-0.474,0.227-1.023,0.342-1.645,0.342c-0.613,0-1.099-0.131-1.46-0.396
		c-0.362-0.264-0.583-0.58-0.664-0.945l-0.839,3.904H47.392z M50.779,169.062c-0.041,0.203-0.074,0.398-0.099,0.588
		c-0.026,0.188-0.038,0.348-0.038,0.479c0,0.418,0.109,0.75,0.328,1c0.218,0.25,0.587,0.373,1.106,0.373
		c0.326,0,0.613-0.064,0.862-0.197s0.475-0.35,0.679-0.656c0.101-0.174,0.193-0.371,0.275-0.596
		c0.081-0.223,0.152-0.455,0.213-0.693s0.107-0.477,0.137-0.709c0.031-0.234,0.046-0.443,0.046-0.625
		c0-0.906-0.432-1.359-1.297-1.359c-0.498,0-0.907,0.148-1.228,0.443c-0.32,0.295-0.577,0.701-0.77,1.221
		c-0.021,0.061-0.056,0.17-0.107,0.328C50.835,168.816,50.8,168.951,50.779,169.062"/>
	<path fill="#006BA9" d="M61.581,172.89l0.229-1.143c-0.254,0.428-0.593,0.756-1.015,0.982c-0.422,0.23-0.944,0.344-1.564,0.344
		c-0.681,0-1.218-0.188-1.61-0.564c-0.391-0.375-0.587-0.844-0.587-1.404c0-0.426,0.074-0.811,0.221-1.15
		c0.148-0.34,0.415-0.629,0.802-0.861c0.427-0.266,0.958-0.434,1.594-0.504c0.635-0.072,1.467-0.107,2.494-0.107h0.275l0.092-0.441
		c0.03-0.145,0.048-0.26,0.053-0.354c0.005-0.092,0.008-0.176,0.008-0.258c0-0.264-0.09-0.465-0.267-0.604
		c-0.179-0.137-0.461-0.205-0.847-0.205c-0.488,0-0.852,0.086-1.091,0.26c-0.239,0.172-0.399,0.482-0.481,0.93h-1.892
		c0.071-0.418,0.188-0.793,0.351-1.129s0.392-0.621,0.687-0.854c0.295-0.234,0.664-0.414,1.106-0.543
		c0.442-0.127,0.979-0.189,1.61-0.189c0.427,0,0.813,0.033,1.16,0.098c0.345,0.068,0.64,0.174,0.884,0.32
		c0.244,0.148,0.432,0.344,0.565,0.588c0.132,0.244,0.198,0.549,0.198,0.916c0,0.193-0.015,0.416-0.045,0.67
		c-0.031,0.256-0.072,0.5-0.122,0.734l-0.932,4.469H61.581z M61.932,169.658c-0.59,0-1.03,0.012-1.32,0.037
		c-0.29,0.025-0.536,0.064-0.74,0.113c-0.254,0.082-0.458,0.191-0.61,0.328c-0.153,0.137-0.229,0.35-0.229,0.633
		c0,0.307,0.107,0.525,0.32,0.658c0.214,0.131,0.473,0.197,0.778,0.197c0.427,0,0.758-0.072,0.992-0.221
		c0.234-0.146,0.422-0.313,0.565-0.496c0.091-0.121,0.175-0.273,0.251-0.457c0.076-0.184,0.14-0.371,0.191-0.564l0.061-0.229H61.932
		z"/>
	<path fill="#006BA9" d="M65.426,172.892l1.602-7.613h1.999l-0.306,1.432c0.184-0.457,0.463-0.842,0.84-1.158
		c0.376-0.314,0.849-0.479,1.419-0.488c0.142,0,0.272,0.006,0.389,0.016c0.117,0.01,0.236,0.035,0.358,0.076l-0.366,1.693
		c-0.274-0.063-0.59-0.092-0.946-0.092c-0.386,0-0.699,0.074-0.938,0.223c-0.239,0.146-0.435,0.303-0.588,0.465
		c-0.162,0.172-0.297,0.406-0.404,0.701s-0.201,0.627-0.282,0.99l-0.778,3.756H65.426z"/>
	<path fill="#006BA9" d="M75.466,172.89l0.229-1.143c-0.254,0.428-0.593,0.756-1.015,0.982c-0.422,0.23-0.944,0.344-1.564,0.344
		c-0.681,0-1.218-0.188-1.61-0.564c-0.391-0.375-0.587-0.844-0.587-1.404c0-0.426,0.074-0.811,0.221-1.15
		c0.148-0.34,0.415-0.629,0.802-0.861c0.427-0.266,0.958-0.434,1.594-0.504c0.635-0.072,1.467-0.107,2.494-0.107h0.275l0.092-0.441
		c0.03-0.145,0.048-0.26,0.053-0.354c0.005-0.092,0.008-0.176,0.008-0.258c0-0.264-0.09-0.465-0.267-0.604
		c-0.179-0.137-0.461-0.205-0.847-0.205c-0.488,0-0.852,0.086-1.091,0.26c-0.239,0.172-0.399,0.482-0.481,0.93H71.88
		c0.071-0.418,0.188-0.793,0.351-1.129s0.392-0.621,0.687-0.854c0.295-0.234,0.664-0.414,1.106-0.543
		c0.442-0.127,0.979-0.189,1.61-0.189c0.427,0,0.813,0.033,1.16,0.098c0.345,0.068,0.64,0.174,0.884,0.32
		c0.244,0.148,0.432,0.344,0.565,0.588c0.132,0.244,0.198,0.549,0.198,0.916c0,0.193-0.015,0.416-0.045,0.67
		c-0.031,0.256-0.072,0.5-0.122,0.734l-0.932,4.469H75.466z M75.817,169.658c-0.59,0-1.03,0.012-1.32,0.037s-0.536,0.064-0.74,0.113
		c-0.254,0.082-0.458,0.191-0.61,0.328c-0.153,0.137-0.229,0.35-0.229,0.633c0,0.307,0.107,0.525,0.32,0.658
		c0.214,0.131,0.473,0.197,0.778,0.197c0.427,0,0.758-0.072,0.992-0.221c0.234-0.146,0.422-0.313,0.565-0.496
		c0.091-0.121,0.175-0.273,0.251-0.457c0.076-0.184,0.14-0.371,0.191-0.564l0.061-0.229H75.817z"/>
	<polygon fill="#006BA9" points="82.209,172.892 84.438,162.349 86.436,162.349 84.208,172.892 	"/>
	<path fill="#006BA9" d="M90.616,172.89l0.229-1.143c-0.254,0.428-0.593,0.756-1.015,0.982c-0.422,0.23-0.944,0.344-1.564,0.344
		c-0.681,0-1.218-0.188-1.61-0.564c-0.391-0.375-0.587-0.844-0.587-1.404c0-0.426,0.074-0.811,0.221-1.15
		c0.148-0.34,0.415-0.629,0.802-0.861c0.427-0.266,0.958-0.434,1.594-0.504c0.635-0.072,1.467-0.107,2.494-0.107h0.275l0.092-0.441
		c0.03-0.145,0.048-0.26,0.053-0.354c0.005-0.092,0.008-0.176,0.008-0.258c0-0.264-0.09-0.465-0.267-0.604
		c-0.179-0.137-0.461-0.205-0.847-0.205c-0.488,0-0.852,0.086-1.091,0.26c-0.239,0.172-0.399,0.482-0.481,0.93H87.03
		c0.071-0.418,0.188-0.793,0.351-1.129s0.392-0.621,0.687-0.854c0.295-0.234,0.664-0.414,1.106-0.543
		c0.442-0.127,0.979-0.189,1.61-0.189c0.427,0,0.813,0.033,1.16,0.098c0.345,0.068,0.64,0.174,0.884,0.32
		c0.244,0.148,0.432,0.344,0.565,0.588c0.132,0.244,0.198,0.549,0.198,0.916c0,0.193-0.015,0.416-0.045,0.67
		c-0.031,0.256-0.072,0.5-0.122,0.734l-0.932,4.469H90.616z M90.967,169.658c-0.59,0-1.03,0.012-1.32,0.037s-0.536,0.064-0.74,0.113
		c-0.254,0.082-0.458,0.191-0.61,0.328c-0.153,0.137-0.229,0.35-0.229,0.633c0,0.307,0.107,0.525,0.32,0.658
		c0.214,0.131,0.473,0.197,0.778,0.197c0.427,0,0.758-0.072,0.992-0.221c0.234-0.146,0.422-0.313,0.565-0.496
		c0.091-0.121,0.175-0.273,0.251-0.457c0.076-0.184,0.14-0.371,0.191-0.564l0.061-0.229H90.967z"/>
	<path fill="#006BA9" d="M94.461,172.892l2.228-10.543h2.001l-0.948,4.332c0.132-0.244,0.298-0.467,0.497-0.664
		c0.199-0.197,0.42-0.365,0.666-0.502c0.244-0.139,0.502-0.242,0.773-0.314c0.27-0.07,0.538-0.107,0.803-0.107
		c0.826,0,1.435,0.201,1.828,0.604s0.59,0.984,0.59,1.748c0,0.336-0.021,0.684-0.062,1.045s-0.107,0.725-0.199,1.09
		c-0.091,0.367-0.211,0.727-0.359,1.076s-0.334,0.678-0.559,0.984c-0.704,0.957-1.668,1.434-2.892,1.434
		c-0.275,0-0.541-0.035-0.795-0.107c-0.256-0.07-0.48-0.172-0.673-0.305c-0.193-0.131-0.353-0.285-0.48-0.457
		c-0.128-0.172-0.206-0.367-0.237-0.58l-0.275,1.268H94.461z M97.284,169.015c-0.051,0.215-0.092,0.42-0.122,0.617
		c-0.031,0.199-0.046,0.365-0.046,0.496c0,0.418,0.109,0.75,0.328,1c0.218,0.25,0.588,0.373,1.106,0.373
		c0.326,0,0.613-0.064,0.862-0.197s0.476-0.352,0.679-0.656c0.102-0.172,0.193-0.371,0.275-0.596
		c0.081-0.223,0.152-0.453,0.213-0.693s0.107-0.477,0.138-0.709c0.03-0.234,0.046-0.443,0.046-0.625
		c0-0.906-0.433-1.359-1.297-1.359c-0.468,0-0.862,0.141-1.183,0.42c-0.32,0.281-0.572,0.645-0.755,1.09
		c-0.031,0.082-0.069,0.199-0.115,0.354C97.367,168.681,97.325,168.841,97.284,169.015"/>
	<path fill="#006BA9" d="M111.581,167.917c0,0.334-0.025,0.688-0.076,1.053s-0.135,0.73-0.252,1.092
		c-0.117,0.359-0.269,0.703-0.457,1.027c-0.189,0.326-0.415,0.617-0.68,0.871c-0.417,0.396-0.89,0.682-1.419,0.855
		c-0.528,0.172-1.113,0.258-1.754,0.258c-1.068,0-1.874-0.238-2.418-0.717c-0.545-0.479-0.817-1.191-0.817-2.137
		c0-0.336,0.03-0.688,0.091-1.059c0.061-0.373,0.156-0.736,0.283-1.092c0.127-0.357,0.29-0.699,0.488-1.031
		c0.199-0.33,0.44-0.623,0.725-0.875c0.427-0.377,0.895-0.648,1.404-0.818c0.508-0.168,1.083-0.252,1.724-0.252
		c1.017,0,1.798,0.23,2.342,0.688C111.309,166.24,111.581,166.951,111.581,167.917 M109.505,168.101
		c0-0.488-0.117-0.848-0.351-1.076c-0.234-0.23-0.58-0.344-1.037-0.344c-0.336,0-0.629,0.055-0.878,0.16
		c-0.249,0.107-0.475,0.281-0.679,0.527c-0.132,0.152-0.244,0.34-0.335,0.564c-0.092,0.223-0.168,0.453-0.229,0.693
		s-0.107,0.479-0.137,0.717c-0.031,0.238-0.046,0.461-0.046,0.664c0,0.52,0.122,0.898,0.366,1.137
		c0.244,0.238,0.6,0.357,1.068,0.357c0.305,0,0.574-0.045,0.809-0.135c0.234-0.092,0.442-0.246,0.625-0.459
		c0.142-0.162,0.267-0.367,0.374-0.611c0.107-0.244,0.193-0.498,0.26-0.762c0.065-0.264,0.114-0.525,0.144-0.779
		C109.49,168.501,109.505,168.285,109.505,168.101"/>
	<path fill="#006BA9" d="M112.206,172.892l1.602-7.613h1.999l-0.306,1.432c0.184-0.457,0.463-0.842,0.84-1.158
		c0.376-0.314,0.849-0.479,1.419-0.488c0.142,0,0.272,0.006,0.389,0.016c0.117,0.01,0.236,0.035,0.358,0.076l-0.366,1.693
		c-0.274-0.063-0.59-0.092-0.946-0.092c-0.386,0-0.699,0.074-0.938,0.223c-0.239,0.146-0.435,0.303-0.588,0.465
		c-0.162,0.172-0.297,0.406-0.404,0.701s-0.201,0.627-0.282,0.99l-0.778,3.756H112.206z"/>
	<path fill="#006BA9" d="M122.246,172.89l0.229-1.143c-0.254,0.428-0.593,0.756-1.015,0.982c-0.422,0.23-0.944,0.344-1.564,0.344
		c-0.681,0-1.218-0.188-1.61-0.564c-0.391-0.375-0.587-0.844-0.587-1.404c0-0.426,0.074-0.811,0.221-1.15
		c0.148-0.34,0.415-0.629,0.802-0.861c0.427-0.266,0.958-0.434,1.594-0.504c0.635-0.072,1.467-0.107,2.494-0.107h0.275l0.092-0.441
		c0.03-0.145,0.048-0.26,0.053-0.354c0.005-0.092,0.008-0.176,0.008-0.258c0-0.264-0.09-0.465-0.267-0.604
		c-0.179-0.137-0.461-0.205-0.847-0.205c-0.488,0-0.852,0.086-1.091,0.26c-0.239,0.172-0.399,0.482-0.481,0.93h-1.892
		c0.071-0.418,0.188-0.793,0.351-1.129s0.392-0.621,0.687-0.854c0.295-0.234,0.664-0.414,1.106-0.543
		c0.442-0.127,0.979-0.189,1.61-0.189c0.427,0,0.813,0.033,1.16,0.098c0.345,0.068,0.64,0.174,0.884,0.32
		c0.244,0.148,0.432,0.344,0.565,0.588c0.132,0.244,0.198,0.549,0.198,0.916c0,0.193-0.015,0.416-0.045,0.67
		c-0.031,0.256-0.072,0.5-0.122,0.734l-0.932,4.469H122.246z M122.597,169.658c-0.59,0-1.03,0.012-1.32,0.037
		s-0.536,0.064-0.74,0.113c-0.254,0.082-0.458,0.191-0.61,0.328c-0.153,0.137-0.229,0.35-0.229,0.633
		c0,0.307,0.107,0.525,0.32,0.658c0.214,0.131,0.473,0.197,0.778,0.197c0.427,0,0.758-0.072,0.992-0.221
		c0.234-0.146,0.422-0.313,0.565-0.496c0.091-0.121,0.175-0.273,0.251-0.457c0.076-0.184,0.14-0.371,0.191-0.564l0.061-0.229
		H122.597z"/>
	<path fill="#006BA9" d="M130.179,172.861c-0.204,0.051-0.425,0.094-0.664,0.131c-0.239,0.035-0.536,0.053-0.892,0.053
		c-0.265,0-0.511-0.027-0.74-0.078c-0.229-0.049-0.43-0.139-0.603-0.266s-0.31-0.295-0.412-0.504
		c-0.102-0.207-0.152-0.465-0.152-0.771c0-0.213,0.017-0.436,0.053-0.67c0.035-0.234,0.089-0.508,0.16-0.824l0.671-3.174h-0.976
		l0.321-1.479h0.976l0.473-1.984h1.922l-0.411,1.984h1.586l-0.305,1.479h-1.571l-0.702,3.219c-0.082,0.389-0.122,0.678-0.122,0.869
		c0,0.439,0.264,0.658,0.793,0.658c0.163,0,0.323-0.01,0.481-0.031c0.157-0.02,0.302-0.047,0.434-0.076L130.179,172.861z"/>
	<path fill="#006BA9" d="M139.365,167.917c0,0.334-0.025,0.688-0.076,1.053c-0.051,0.365-0.135,0.73-0.252,1.092
		c-0.117,0.359-0.269,0.703-0.457,1.027c-0.189,0.326-0.415,0.617-0.68,0.871c-0.417,0.396-0.89,0.682-1.419,0.855
		c-0.528,0.172-1.113,0.258-1.754,0.258c-1.068,0-1.874-0.238-2.418-0.717c-0.545-0.479-0.817-1.191-0.817-2.137
		c0-0.336,0.03-0.688,0.091-1.059c0.061-0.373,0.156-0.736,0.283-1.092c0.127-0.357,0.29-0.699,0.488-1.031
		c0.199-0.33,0.44-0.623,0.725-0.875c0.427-0.377,0.895-0.648,1.404-0.818c0.508-0.168,1.083-0.252,1.724-0.252
		c1.017,0,1.798,0.23,2.342,0.688C139.092,166.24,139.365,166.951,139.365,167.917 M137.29,168.101c0-0.488-0.117-0.848-0.351-1.076
		c-0.234-0.23-0.58-0.344-1.037-0.344c-0.336,0-0.629,0.055-0.878,0.16c-0.249,0.107-0.475,0.281-0.679,0.527
		c-0.132,0.152-0.244,0.34-0.335,0.564c-0.092,0.223-0.168,0.453-0.229,0.693c-0.061,0.24-0.107,0.479-0.137,0.717
		c-0.031,0.238-0.046,0.461-0.046,0.664c0,0.52,0.122,0.898,0.366,1.137c0.244,0.238,0.6,0.357,1.068,0.357
		c0.305,0,0.574-0.045,0.809-0.135c0.234-0.092,0.442-0.246,0.625-0.459c0.142-0.162,0.267-0.367,0.374-0.611
		s0.193-0.498,0.26-0.762c0.065-0.264,0.114-0.525,0.144-0.779C137.274,168.501,137.29,168.285,137.29,168.101"/>
	<path fill="#006BA9" d="M139.99,172.892l1.602-7.613h1.999l-0.305,1.432c0.183-0.457,0.463-0.842,0.839-1.158
		c0.376-0.314,0.849-0.479,1.419-0.488c0.142,0,0.272,0.006,0.388,0.016c0.118,0.01,0.238,0.035,0.36,0.076l-0.366,1.693
		c-0.276-0.063-0.591-0.092-0.947-0.092c-0.386,0-0.699,0.074-0.938,0.223c-0.239,0.146-0.435,0.303-0.587,0.465
		c-0.163,0.172-0.298,0.406-0.405,0.701s-0.201,0.627-0.283,0.99l-0.777,3.756H139.99z"/>
	<path fill="#006BA9" d="M145.65,172.892l1.602-7.615h1.999l-1.602,7.615H145.65z M147.496,164.164l0.382-1.814h1.999l-0.382,1.814
		H147.496z"/>
	<path fill="#006BA9" d="M157.688,167.917c0,0.334-0.025,0.688-0.076,1.053s-0.135,0.73-0.252,1.092
		c-0.117,0.359-0.269,0.703-0.457,1.027c-0.188,0.326-0.414,0.617-0.68,0.871c-0.417,0.396-0.889,0.682-1.419,0.855
		c-0.528,0.172-1.114,0.258-1.754,0.258c-1.068,0-1.874-0.238-2.418-0.717s-0.817-1.191-0.817-2.137c0-0.336,0.03-0.688,0.092-1.059
		c0.06-0.373,0.154-0.736,0.282-1.092c0.127-0.357,0.29-0.699,0.488-1.031c0.199-0.33,0.44-0.623,0.725-0.875
		c0.427-0.377,0.895-0.648,1.403-0.818c0.51-0.168,1.084-0.252,1.725-0.252c1.018,0,1.799,0.23,2.342,0.688
		C157.417,166.24,157.688,166.951,157.688,167.917 M155.614,168.101c0-0.488-0.117-0.848-0.352-1.076
		c-0.234-0.23-0.58-0.344-1.038-0.344c-0.335,0-0.628,0.055-0.877,0.16c-0.249,0.107-0.476,0.281-0.678,0.527
		c-0.134,0.152-0.244,0.34-0.336,0.564c-0.092,0.223-0.168,0.453-0.229,0.693s-0.107,0.479-0.137,0.717
		c-0.031,0.238-0.046,0.461-0.046,0.664c0,0.52,0.122,0.898,0.366,1.137c0.245,0.238,0.6,0.357,1.069,0.357
		c0.305,0,0.573-0.045,0.809-0.135c0.232-0.092,0.441-0.246,0.625-0.459c0.142-0.162,0.267-0.367,0.373-0.611
		c0.107-0.244,0.193-0.498,0.261-0.762c0.065-0.264,0.114-0.525,0.144-0.779C155.597,168.501,155.614,168.285,155.614,168.101"/>
	<path fill="#006BA9" d="M160.145,170.39v0.242c0,0.652,0.457,0.979,1.374,0.979c0.387,0,0.72-0.061,0.999-0.176
		c0.28-0.117,0.42-0.34,0.42-0.664c0-0.092-0.016-0.176-0.046-0.252s-0.089-0.15-0.176-0.223c-0.086-0.07-0.211-0.139-0.373-0.205
		c-0.163-0.066-0.377-0.135-0.642-0.207l-0.932-0.26c-0.539-0.15-0.961-0.385-1.266-0.701c-0.305-0.314-0.458-0.727-0.458-1.234
		c0-0.459,0.089-0.85,0.267-1.176c0.179-0.324,0.426-0.594,0.74-0.801c0.316-0.209,0.692-0.361,1.129-0.459
		c0.438-0.096,0.921-0.143,1.45-0.143c0.387,0,0.75,0.033,1.092,0.098c0.34,0.066,0.641,0.176,0.899,0.328
		c0.26,0.152,0.463,0.354,0.61,0.604s0.222,0.557,0.222,0.924v0.273c0,0.102-0.011,0.197-0.03,0.289h-1.816
		c0.011-0.041,0.016-0.086,0.016-0.137v-0.107c0-0.242-0.084-0.443-0.252-0.602s-0.476-0.238-0.923-0.238
		c-0.376,0-0.694,0.063-0.954,0.186c-0.259,0.121-0.389,0.35-0.389,0.686c0,0.203,0.061,0.367,0.184,0.488
		c0.122,0.123,0.401,0.24,0.839,0.35l1.068,0.291c1.21,0.346,1.815,0.973,1.815,1.877c0,0.508-0.102,0.934-0.306,1.275
		c-0.203,0.34-0.479,0.611-0.823,0.814c-0.347,0.203-0.745,0.35-1.198,0.436c-0.452,0.086-0.928,0.129-1.428,0.129
		c-0.935,0-1.671-0.182-2.203-0.549c-0.535-0.365-0.803-0.9-0.803-1.604c0-0.09,0.003-0.184,0.008-0.281
		c0.006-0.096,0.014-0.18,0.024-0.25H160.145z"/>
	<path fill="#006BA9" d="M176.166,170.099c-0.081,0.428-0.211,0.82-0.389,1.184c-0.178,0.361-0.42,0.672-0.725,0.938
		c-0.306,0.266-0.689,0.473-1.152,0.625c-0.464,0.152-1.024,0.229-1.686,0.229c-1.018,0-1.801-0.242-2.35-0.725
		c-0.55-0.482-0.824-1.184-0.824-2.098c0-0.355,0.03-0.721,0.092-1.098c0.061-0.377,0.157-0.746,0.29-1.107
		c0.132-0.359,0.302-0.705,0.511-1.029c0.208-0.324,0.455-0.615,0.74-0.869c0.772-0.703,1.785-1.055,3.036-1.055
		c0.926,0,1.633,0.182,2.121,0.543s0.731,0.928,0.731,1.701c0,0.143-0.005,0.285-0.015,0.428s-0.03,0.295-0.061,0.457h-1.907
		c0.01-0.051,0.02-0.127,0.03-0.229c0.01-0.102,0.015-0.193,0.015-0.275c0-0.141-0.013-0.273-0.038-0.396
		c-0.025-0.121-0.081-0.232-0.168-0.328c-0.086-0.096-0.205-0.172-0.358-0.229c-0.152-0.057-0.351-0.084-0.595-0.084
		c-0.234,0-0.453,0.029-0.656,0.092c-0.203,0.061-0.392,0.162-0.564,0.305c-0.184,0.143-0.344,0.332-0.48,0.564
		c-0.138,0.234-0.252,0.488-0.344,0.764c-0.091,0.275-0.162,0.557-0.213,0.846c-0.052,0.291-0.077,0.563-0.077,0.818
		c0,0.273,0.039,0.506,0.115,0.691c0.076,0.189,0.18,0.338,0.313,0.443c0.132,0.107,0.279,0.184,0.442,0.23
		c0.163,0.045,0.336,0.066,0.519,0.066c0.294,0,0.543-0.037,0.748-0.113c0.203-0.076,0.374-0.182,0.511-0.313
		c0.138-0.133,0.247-0.283,0.328-0.451c0.08-0.168,0.143-0.342,0.184-0.525H176.166z"/>
	<polygon fill="#006BA9" points="176.99,172.892 179.217,162.349 181.216,162.349 178.989,172.892 	"/>
	<path fill="#006BA9" d="M180.958,172.892l1.602-7.615h1.999l-1.602,7.615H180.958z M182.529,164.087l2.182-2.594h1.938
		l-2.701,2.594H182.529z"/>
	<path fill="#006BA9" d="M184.924,172.892l1.602-7.613h1.999l-0.29,1.326c0.214-0.396,0.552-0.744,1.015-1.045
		s1.02-0.449,1.671-0.449c0.287,0,0.556,0.029,0.807,0.09c0.252,0.061,0.472,0.158,0.661,0.291c0.189,0.131,0.341,0.307,0.454,0.525
		c0.112,0.219,0.169,0.49,0.169,0.816c0,0.193-0.014,0.41-0.039,0.648c-0.026,0.238-0.069,0.496-0.13,0.77l-0.984,4.641h-2.006
		l0.916-4.334c0.03-0.162,0.056-0.322,0.076-0.48s0.03-0.293,0.03-0.404c0-0.336-0.094-0.574-0.282-0.719
		c-0.189-0.141-0.46-0.211-0.816-0.211c-0.355,0-0.653,0.068-0.893,0.205s-0.414,0.277-0.526,0.42
		c-0.152,0.182-0.27,0.383-0.351,0.602c-0.082,0.219-0.158,0.486-0.229,0.803l-0.854,4.119H184.924z"/>
	<path fill="#006BA9" d="M193.85,172.892l1.602-7.615h1.999l-1.602,7.615H193.85z M195.696,164.164l0.382-1.814h1.999l-0.382,1.814
		H195.696z"/>
	<path fill="#006BA9" d="M205.14,170.099c-0.081,0.428-0.211,0.82-0.389,1.184c-0.178,0.361-0.42,0.672-0.725,0.938
		c-0.306,0.266-0.689,0.473-1.152,0.625c-0.464,0.152-1.024,0.229-1.686,0.229c-1.018,0-1.801-0.242-2.35-0.725
		c-0.55-0.482-0.824-1.184-0.824-2.098c0-0.355,0.03-0.721,0.092-1.098c0.061-0.377,0.157-0.746,0.29-1.107
		c0.132-0.359,0.302-0.705,0.511-1.029c0.208-0.324,0.455-0.615,0.74-0.869c0.772-0.703,1.785-1.055,3.036-1.055
		c0.926,0,1.633,0.182,2.121,0.543s0.731,0.928,0.731,1.701c0,0.143-0.005,0.285-0.015,0.428s-0.03,0.295-0.061,0.457h-1.907
		c0.01-0.051,0.02-0.127,0.03-0.229c0.01-0.102,0.015-0.193,0.015-0.275c0-0.141-0.013-0.273-0.038-0.396
		c-0.025-0.121-0.081-0.232-0.168-0.328c-0.086-0.096-0.205-0.172-0.358-0.229c-0.152-0.057-0.351-0.084-0.595-0.084
		c-0.234,0-0.453,0.029-0.656,0.092c-0.203,0.061-0.392,0.162-0.564,0.305c-0.184,0.143-0.344,0.332-0.48,0.564
		c-0.138,0.234-0.252,0.488-0.344,0.764c-0.091,0.275-0.162,0.557-0.213,0.846c-0.052,0.291-0.077,0.563-0.077,0.818
		c0,0.273,0.039,0.506,0.115,0.691c0.076,0.189,0.18,0.338,0.313,0.443c0.132,0.107,0.279,0.184,0.442,0.23
		c0.163,0.045,0.336,0.066,0.519,0.066c0.294,0,0.543-0.037,0.748-0.113c0.203-0.076,0.374-0.182,0.511-0.313
		c0.138-0.133,0.247-0.283,0.328-0.451c0.08-0.168,0.143-0.342,0.184-0.525H205.14z"/>
	<path fill="#006BA9" d="M213.959,167.917c0,0.334-0.025,0.688-0.076,1.053s-0.135,0.73-0.252,1.092
		c-0.117,0.359-0.27,0.703-0.458,1.027c-0.188,0.326-0.414,0.617-0.679,0.871c-0.417,0.396-0.89,0.682-1.419,0.855
		c-0.529,0.172-1.114,0.258-1.755,0.258c-1.067,0-1.873-0.238-2.418-0.717c-0.544-0.479-0.816-1.191-0.816-2.137
		c0-0.336,0.03-0.688,0.092-1.059c0.061-0.373,0.154-0.736,0.282-1.092c0.127-0.357,0.29-0.699,0.488-1.031
		c0.198-0.33,0.439-0.623,0.725-0.875c0.427-0.377,0.895-0.648,1.403-0.818c0.509-0.168,1.084-0.252,1.725-0.252
		c1.017,0,1.798,0.23,2.342,0.688C213.687,166.24,213.959,166.951,213.959,167.917 M211.884,168.101
		c0-0.488-0.117-0.848-0.351-1.076c-0.234-0.23-0.58-0.344-1.038-0.344c-0.335,0-0.628,0.055-0.877,0.16
		c-0.249,0.107-0.476,0.281-0.679,0.527c-0.133,0.152-0.244,0.34-0.336,0.564c-0.092,0.223-0.168,0.453-0.229,0.693
		c-0.062,0.24-0.107,0.479-0.137,0.717c-0.031,0.238-0.047,0.461-0.047,0.664c0,0.52,0.122,0.898,0.366,1.137
		s0.601,0.357,1.068,0.357c0.305,0,0.574-0.045,0.809-0.135c0.233-0.092,0.442-0.246,0.625-0.459
		c0.143-0.162,0.268-0.367,0.374-0.611c0.107-0.244,0.193-0.498,0.26-0.762c0.065-0.264,0.114-0.525,0.145-0.779
		S211.884,168.285,211.884,168.101"/>
	<path fill="#006BA9" d="M216.416,170.39v0.242c0,0.652,0.457,0.979,1.373,0.979c0.387,0,0.72-0.061,0.999-0.176
		c0.28-0.117,0.42-0.34,0.42-0.664c0-0.092-0.016-0.176-0.046-0.252s-0.089-0.15-0.176-0.223c-0.086-0.07-0.211-0.139-0.373-0.205
		c-0.163-0.066-0.377-0.135-0.642-0.207l-0.931-0.26c-0.539-0.15-0.961-0.385-1.266-0.701c-0.306-0.314-0.458-0.727-0.458-1.234
		c0-0.459,0.089-0.85,0.267-1.176c0.178-0.324,0.425-0.594,0.74-0.801c0.315-0.209,0.691-0.361,1.129-0.459
		c0.438-0.096,0.921-0.143,1.449-0.143c0.387,0,0.75,0.033,1.092,0.098c0.34,0.066,0.641,0.176,0.899,0.328
		c0.26,0.152,0.463,0.354,0.61,0.604s0.222,0.557,0.222,0.924v0.273c0,0.102-0.011,0.197-0.03,0.289h-1.816
		c0.011-0.041,0.016-0.086,0.016-0.137v-0.107c0-0.242-0.084-0.443-0.252-0.602s-0.476-0.238-0.923-0.238
		c-0.376,0-0.694,0.063-0.954,0.186c-0.259,0.121-0.389,0.35-0.389,0.686c0,0.203,0.061,0.367,0.184,0.488
		c0.122,0.123,0.401,0.24,0.839,0.35l1.068,0.291c1.21,0.346,1.815,0.973,1.815,1.877c0,0.508-0.102,0.934-0.306,1.275
		c-0.203,0.34-0.478,0.611-0.823,0.814c-0.347,0.203-0.745,0.35-1.198,0.436c-0.452,0.086-0.928,0.129-1.427,0.129
		c-0.936,0-1.671-0.182-2.204-0.549c-0.534-0.365-0.802-0.9-0.802-1.604c0-0.09,0.003-0.184,0.008-0.281
		c0.005-0.096,0.013-0.18,0.023-0.25H216.416z"/>
	<path fill="#35313A" d="M58.79,56.808c0.501,0,1.003-0.017,1.504,0.003c1.164,0.048,2.057,0.886,2.122,1.971
		c0.062,1.026-0.812,2.077-1.934,2.154c-1.154,0.079-2.321,0.071-3.477,0.003c-1.119-0.066-1.973-1.089-1.921-2.152
		c0.055-1.105,0.936-1.935,2.107-1.967c0.533-0.015,1.066-0.003,1.599-0.003V56.808z"/>
	<path fill="#35313A" d="M98.403,124.16c-5.065-6.988-10.248-13.893-15.381-20.828c-4.801-6.49-9.608-12.973-14.39-19.475
		c-0.252-0.343-0.401-0.841-0.41-1.27c-0.049-2.439-0.048-4.88-0.051-7.32c-0.002-1.456-0.002-2.913-0.002-4.369h-4.221
		c0,4.096-0.002,8.193-0.012,12.29c-0.003,1.053,0.306,1.922,0.94,2.769c3.686,4.935,7.355,9.882,11.023,14.832l7.921,10.643
		c0.031,0.037,0.062,0.07,0.092,0.111c3.629,4.902,7.278,9.791,10.925,14.682c2.996,4.02,0.489,9.076-3.232,10.002
		c-0.604,0.152-1.233,0.281-1.851,0.281c-11.365,0.016-22.73,0.012-34.095,0.012v0.004c-11.082,0-22.165-0.004-33.247,0.004
		c-1.755,0.002-3.421-0.246-4.866-1.348c-2.562-1.951-3.214-5.912-1.324-8.502c2.61-3.58,5.231-7.152,7.856-10.719h-0.002
		l0.459-0.619c1.671-2.273,3.342-4.543,5.016-6.813c0.046-0.061,0.1-0.121,0.158-0.18l7.427-10.034
		c3.154-4.267,6.251-8.454,9.361-12.63c0.472-0.635,0.683-1.277,0.681-2.071c-0.012-4.238-0.013-8.476-0.012-12.714h-4.146
		c0,3.954-0.004,7.908-0.016,11.863c-0.002,0.367-0.184,0.788-0.408,1.092c-3.869,5.268-7.755,10.524-11.642,15.78
		c-5.614,7.59-11.216,15.191-16.86,22.76c-1.869,2.506-3.368,5.09-3.118,8.385c0.238,3.141,1.582,5.666,3.985,7.664
		c1.477,1.23,3.252,1.775,5.066,2.234h71.042c0.109-0.051,0.215-0.133,0.33-0.148C99.006,139.521,102.993,130.49,98.403,124.16"/>
	<path fill="#35313A" d="M49.397,56.801c-1.57-0.008-3.14,0.021-4.709,0.008c-1.916-0.015-2.747-0.844-2.766-2.743
		c-0.01-1.067-0.013-2.135,0.022-3.201c0.054-1.648,0.899-2.501,2.499-2.504c0.6-0.001,1.2,0,1.8-0.001v-4.166h-3.038
		c-0.078,0.044-0.152,0.117-0.235,0.13c-2.937,0.478-4.974,2.914-5.171,5.725c-0.124,1.778-0.101,3.581,0.034,5.359
		c0.135,1.8,1.04,3.285,2.539,4.301c0.782,0.53,1.699,0.858,2.622,1.31c0.002,0.022,0.024,0.145,0.024,0.268
		c0,1.123,0.001,2.246,0.001,3.369h4.149c0-0.965,0-1.93,0-2.895c0.001-0.217,0-0.436,0-0.801c0.77,0,1.507,0.003,2.245,0
		c1.547-0.008,2.475-0.796,2.464-2.091C51.868,57.57,50.967,56.809,49.397,56.801"/>
	<path fill="#35313A" d="M73.36,50.265c0.005-1.731-0.733-3.126-1.923-4.33c-0.984-0.994-2.251-1.392-3.546-1.741h-2.789v4.152
		c0.46-0.001,0.921,0,1.381,0.003c1.951,0.014,2.73,0.806,2.731,2.737c0.001,1.131,0.011,2.262-0.003,3.391
		c-0.018,1.386-0.642,2.062-2.004,2.208c-2.953,0.316-3.261,0.657-3.261,3.612c0,1.453,0,2.906,0,4.36h4.222
		c0-0.994,0.001-1.986,0-2.979c0-0.509,0.128-0.763,0.721-0.968c2.457-0.846,4.123-2.535,4.424-5.177
		C73.511,53.798,73.355,52.022,73.36,50.265"/>
	<path fill="#006BA9" d="M72.213,99.604L72.213,99.604c-0.482,0.392-1.196,0.317-1.588-0.165l-8.839-10.887
		c-0.391-0.482-0.317-1.197,0.165-1.588c0.482-0.391,1.196-0.317,1.588,0.165l8.839,10.888C72.77,98.5,72.695,99.212,72.213,99.604"
		/>
	<path fill="#35313A" d="M56.892,33.545c-3.438,1.08-5.349,4.744-4.269,8.182c1.081,3.439,4.745,5.35,8.183,4.269
		c3.438-1.08,5.349-4.744,4.269-8.182C63.994,34.376,60.331,32.465,56.892,33.545 M62.056,38.979
		c0.437,1.771-0.644,3.561-2.415,3.999c-1.772,0.437-3.562-0.645-3.999-2.416s0.644-3.561,2.415-3.998
		C59.828,36.126,61.619,37.208,62.056,38.979"/>
	<path fill="#35313A" d="M50.276,46.19c-2.238,0.704-3.482,3.088-2.779,5.326c0.704,2.238,3.088,3.482,5.327,2.778
		c2.237-0.703,3.481-3.088,2.778-5.325C54.899,46.73,52.514,45.486,50.276,46.19 M53.637,49.728
		c0.285,1.153-0.419,2.318-1.572,2.603c-1.153,0.284-2.318-0.419-2.602-1.572c-0.285-1.153,0.419-2.319,1.571-2.603
		C52.187,47.872,53.353,48.575,53.637,49.728"/>
	<path fill="#35313A" d="M54.412,13.432c-4.513,1.418-7.021,6.226-5.603,10.739c1.419,4.513,6.226,7.021,10.739,5.603
		c4.513-1.418,7.021-6.226,5.603-10.739C63.733,14.522,58.925,12.014,54.412,13.432 M61.189,20.564
		c0.574,2.325-0.846,4.674-3.17,5.248c-2.325,0.574-4.674-0.846-5.248-3.17c-0.574-2.325,0.846-4.674,3.17-5.248
		C58.266,16.82,60.615,18.239,61.189,20.564"/>
	<path fill="#006BA9" d="M42.901,120.779c-2.221,0-4.021,1.801-4.021,4.02c0,2.221,1.8,4.023,4.021,4.023s4.021-1.803,4.021-4.023
		C46.922,122.58,45.123,120.779,42.901,120.779 M42.901,127.191c-1.32,0-2.391-1.07-2.391-2.393c0-1.318,1.071-2.389,2.391-2.389
		s2.391,1.07,2.391,2.389C45.292,126.121,44.221,127.191,42.901,127.191"/>
	<rect x="41.9" y="127.949" fill="#006BA9" width="1.574" height="5.195"/>
	<path fill="#006BA9" d="M93.051,127.023l-8.321-10.145c-1.99,0.258-1.719,2.158-1.719,2.158l6.875,8.98
		c0.723,2.984-1.99,2.895-1.99,2.895h-7.698H65.252v-3.248c0-2.732-0.009-5.467,0.004-8.203c0.014-2.703,1.539-4.225,4.24-4.258
		c0.331-0.004,0.666,0.031,0.993-0.006c1.426-0.16,2.472-0.006,3.156,1.65c0.731,1.768,3.046,2.477,4.915,1.965
		c1.929-0.531,3.295-2.313,3.31-4.316c0.015-2.033-1.283-3.773-3.243-4.348c-1.907-0.559-4.036,0.109-4.951,1.854
		c-0.554,1.059-1.23,1.203-2.243,1.182c-1.235-0.027-2.503-0.061-3.703,0.18c-2.739,0.545-4.505,2.805-4.514,5.605
		c-0.011,3.98-0.009,7.963-0.007,11.943h-1.728c0-9.691,0.001-19.383,0-29.075c-0.001-4.213-2.32-6.539-6.518-6.55
		c-0.373-0.002-0.75-0.037-1.118,0.008c-1.351,0.163-2.335-0.077-3.093-1.479c-0.853-1.578-3.226-2.089-4.985-1.437
		c-1.944,0.72-3.131,2.615-2.94,4.69c0.171,1.861,1.686,3.57,3.473,3.916c2.117,0.412,4.193-0.463,4.972-2.365
		c0.437-1.068,1.014-1.344,2.041-1.242c0.739,0.072,1.491-0.005,2.236,0.025c2.371,0.093,3.844,1.568,3.87,3.951
		c0.033,3.145,0.006,6.293,0.006,9.438c0,6.707-0.001,13.412-0.002,20.119h-1.731c0-7.129,0.002-14.256-0.002-21.383
		c-0.003-4.199-2.342-6.527-6.55-6.529c-3.872-0.002-7.744,0-11.616,0l0,0h-2.376h-0.452h-1.534l-17.47,24.191
		c0,0-1.549,7.383,8.854,6.525h63.702C94.77,131.363,93.051,127.023,93.051,127.023 M77.354,112.035
		c1.313-0.012,2.481,1.154,2.46,2.453c-0.021,1.256-1.132,2.365-2.393,2.389c-1.395,0.029-2.346-0.959-2.35-2.441
		C75.067,113.072,76.042,112.048,77.354,112.035 M47.246,98.999c-1.294-0.031-2.376-1.11-2.384-2.377
		c-0.007-1.323,1.119-2.417,2.475-2.402c1.428,0.017,2.306,0.981,2.273,2.499C49.58,98.122,48.635,99.033,47.246,98.999
		 M55.567,130.912h-1.796c0-4.756,0.001-9.512-0.003-14.27c-0.003-3.836-2.364-6.217-6.163-6.232
		c-0.455-0.002-0.914-0.039-1.366,0.006c-1.369,0.133-2.379-0.068-3.187-1.506c-0.962-1.711-3.357-2.152-5.203-1.377
		c-1.851,0.781-2.955,2.688-2.725,4.707c0.216,1.904,1.775,3.549,3.673,3.881c1.98,0.348,4.062-0.625,4.794-2.498
		c0.404-1.033,0.948-1.279,1.924-1.188c0.739,0.07,1.489,0.006,2.235,0.016c2.201,0.037,3.881,1.354,3.911,3.506
		c0.069,4.959,0.059,9.922,0.047,14.955H27.504h-3.459c0,0-1.449-0.236-2.224-1.434c0,0-1.047-1.76,1.67-5.75l0,0l13.656-18.613
		c4.677-0.002,9.355-0.006,14.033,0.002c3.071,0.004,4.388,1.322,4.389,4.381C55.572,116.636,55.57,123.775,55.567,130.912
		 M41.9,111.677c0.008,1.371-0.945,2.402-2.252,2.439c-1.28,0.039-2.492-1.139-2.5-2.428c-0.008-1.275,1.208-2.473,2.487-2.449
		C40.93,109.267,41.893,110.302,41.9,111.677"/>
</g>
</svg>
